<svg xmlns="http://www.w3.org/2000/svg" viewBox="0 0 40 40">
  <defs>
    <radialGradient id="explosionGradient" cx="50%" cy="50%" r="50%">
      <stop offset="0%" style="stop-color:#fff"/>
      <stop offset="30%" style="stop-color:#ffd700"/>
      <stop offset="60%" style="stop-color:#ff6600"/>
      <stop offset="100%" style="stop-color:#ff0000;stop-opacity:0"/>
    </radialGradient>
    <filter id="explosionGlow">
      <feGaussianBlur stdDeviation="3" result="coloredBlur"/>
      <feMerge>
        <feMergeNode in="coloredBlur"/>
        <feMergeNode in="SourceGraphic"/>
      </feMerge>
    </filter>
  </defs>
  <circle cx="20" cy="20" r="18" fill="url(#explosionGradient)" filter="url(#explosionGlow)"/>
  <!-- CG8 27@K20 -->
  <polygon points="20,2 22,10 20,8 18,10" fill="#ffd700"/>
  <polygon points="38,20 30,22 32,20 30,18" fill="#ffd700"/>
  <polygon points="20,38 18,30 20,32 22,30" fill="#ffd700"/>
  <polygon points="2,20 10,18 8,20 10,22" fill="#ffd700"/>
  <polygon points="33,7 27,13 28,11 26,12" fill="#ff6600"/>
  <polygon points="33,33 27,27 28,29 26,28" fill="#ff6600"/>
  <polygon points="7,33 13,27 12,29 14,28" fill="#ff6600"/>
  <polygon points="7,7 13,13 12,11 14,12" fill="#ff6600"/>
</svg>
